<?xml version="1.0" encoding="UTF-8"?>
<svg width="40px" height="31px" viewBox="0 0 40 31" version="1.1" xmlns="http://www.w3.org/2000/svg" xmlns:xlink="http://www.w3.org/1999/xlink">
    <!-- Generator: Sketch 60 (88103) - https://sketch.com -->
    <title>Combined Shape Copy 5</title>
    <desc>Created with Sketch.</desc>
    <g id="Page-1" stroke="none" stroke-width="1" fill="none" fill-rule="evenodd">
        <g id="Icons" transform="translate(-190.000000, -39.000000)" fill="#FFFFFF">
            <path d="M207.229592,39.9647298 C207.505734,39.9647298 207.729592,40.1885875 207.729592,40.4647298 L207.729592,69.9647298 L190.586735,69.9647298 L190.586735,40.4647298 C190.586735,40.1885875 190.810592,39.9647298 191.086735,39.9647298 L207.229592,39.9647298 Z M228.658163,48.5232826 C228.934306,48.5232826 229.158163,48.7471402 229.158163,49.0232826 L229.158163,69.9519125 L212.015306,69.9519125 L212.015306,49.0232826 C212.015306,48.7471402 212.239164,48.5232826 212.515306,48.5232826 L228.658163,48.5232826 Z M197.015306,59.2504441 L192.729592,59.2504441 L192.729592,63.5361584 L197.015306,63.5361584 L197.015306,59.2504441 Z M205.586735,59.2504441 L201.30102,59.2504441 L201.30102,63.5361584 L205.586735,63.5361584 L205.586735,59.2504441 Z M218.443878,59.2376267 L214.158163,59.2376267 L214.158163,63.523341 L218.443878,63.523341 L218.443878,59.2376267 Z M227.015306,59.2376267 L222.729592,59.2376267 L222.729592,63.523341 L227.015306,63.523341 L227.015306,59.2376267 Z M197.015306,50.6790156 L192.729592,50.6790156 L192.729592,54.9647298 L197.015306,54.9647298 L197.015306,50.6790156 Z M205.586735,50.6790156 L201.30102,50.6790156 L201.30102,54.9647298 L205.586735,54.9647298 L205.586735,50.6790156 Z M218.443878,50.6661982 L214.158163,50.6661982 L214.158163,54.9519125 L218.443878,54.9519125 L218.443878,50.6661982 Z M227.015306,50.6661982 L222.729592,50.6661982 L222.729592,54.9519125 L227.015306,54.9519125 L227.015306,50.6661982 Z M197.015306,42.107587 L192.729592,42.107587 L192.729592,46.3933013 L197.015306,46.3933013 L197.015306,42.107587 Z M205.586735,42.107587 L201.30102,42.107587 L201.30102,46.3933013 L205.586735,46.3933013 L205.586735,42.107587 Z" id="Combined-Shape-Copy-5"></path>
        </g>
    </g>
</svg>