<?xml version="1.0" encoding="UTF-8"?>
<svg width="30px" height="30px" viewBox="0 0 30 30" version="1.1" xmlns="http://www.w3.org/2000/svg" xmlns:xlink="http://www.w3.org/1999/xlink">
    <!-- Generator: Sketch 60 (88103) - https://sketch.com -->
    <title>Combined Shape</title>
    <desc>Created with Sketch.</desc>
    <g id="Page-1" stroke="none" stroke-width="1" fill="none" fill-rule="evenodd">
        <g id="Icons" transform="translate(-255.000000, -40.000000)" fill="#FFFFFF">
            <path d="M257.013888,58.9765359 C257.974175,58.9765359 258.752642,59.7550025 258.752642,60.7152897 C258.752642,61.3204569 258.443478,61.853415 257.974478,62.1648367 C259.200959,64.2225895 260.976738,65.9134775 263.099567,67.0356006 L263.098928,64.8585762 C264.889296,65.8943838 266.967998,66.4872222 269.185164,66.4872222 C271.402015,66.4872222 273.480441,65.8945528 275.270635,64.8590189 L275.270803,68.9647298 C275.270803,69.5170146 274.823088,69.9647298 274.270803,69.9647298 L264.099526,69.9647298 C263.547241,69.9647298 263.099526,69.5170146 263.099526,68.9647298 L263.098991,68.0104352 C260.598845,66.7919697 258.518327,64.8461777 257.132793,62.4484124 L257.013888,62.4540435 C256.053601,62.4540435 255.275134,61.6755769 255.275134,60.7152897 C255.275134,59.7550025 256.053601,58.9765359 257.013888,58.9765359 Z M269.185164,43.0140458 C275.427031,43.0140458 280.487064,48.0740787 280.487064,54.3159455 C280.487064,60.5578124 275.427031,65.6178453 269.185164,65.6178453 C262.943298,65.6178453 257.883265,60.5578124 257.883265,54.3159455 C257.883265,48.0740787 262.943298,43.0140458 269.185164,43.0140458 Z M269.185164,51.7078148 C267.744734,51.7078148 266.577034,52.8755147 266.577034,54.3159455 C266.577034,55.7563764 267.744734,56.9240763 269.185164,56.9240763 C270.625595,56.9240763 271.793295,55.7563764 271.793295,54.3159455 C271.793295,52.8755147 270.625595,51.7078148 269.185164,51.7078148 Z M275.826333,43.0698513 C276.104592,42.6785591 276.647371,42.5869279 277.038664,42.8651872 C279.146315,44.3639997 280.686668,46.1211882 281.645214,48.1342709 C281.851632,48.5677791 281.667539,49.0865421 281.234031,49.2929605 C280.800523,49.4993789 280.28176,49.3152863 280.075342,48.8817782 C279.249995,47.1484322 277.906717,45.6160607 276.030997,44.2821817 C275.639705,44.0039224 275.548074,43.4611436 275.826333,43.0698513 Z M276.469317,40.3741843 C276.72339,39.9667719 277.25963,39.8424657 277.667042,40.0965385 C280.824319,42.0654974 283.0761,44.617125 284.400505,47.7391831 C284.588012,48.1811998 284.381692,48.6915301 283.939675,48.8790376 C283.497658,49.0665451 282.987328,48.8602246 282.799821,48.4182078 C281.618966,45.6345449 279.60864,43.3565248 276.746963,41.5719093 C276.33955,41.3178365 276.215244,40.7815967 276.469317,40.3741843 Z" id="Combined-Shape"></path>
        </g>
    </g>
</svg>