<?xml version="1.0" encoding="UTF-8"?>
<svg width="28px" height="30px" viewBox="0 0 28 30" version="1.1" xmlns="http://www.w3.org/2000/svg" xmlns:xlink="http://www.w3.org/1999/xlink">
    <!-- Generator: Sketch 60 (88103) - https://sketch.com -->
    <title>Combined Shape</title>
    <desc>Created with Sketch.</desc>
    <g id="Page-1" stroke="none" stroke-width="1" fill="none" fill-rule="evenodd">
        <g id="Icons" transform="translate(-76.000000, -40.000000)" fill="#FFFFFF">
            <path d="M89.872433,39.9647298 C95.9350496,45.1311267 100.968003,40.9126901 100.968003,40.9126901 L100.968003,40.9126901 L103.243002,44.5622449 C99.4511613,47.9750076 101.884286,51.9248421 103.385289,58.9239358 C104.947668,66.2094502 97.8870664,67.2896656 97.8870664,67.2896656 C92.878663,68.7116061 90.8123418,68.9161923 90.303648,69.5072486 C90.2460999,69.5741681 89.9526836,69.8782757 89.872433,69.9647298 C89.7923144,69.8782757 89.4987661,69.5741681 89.441218,69.5072486 C88.9325242,68.9161923 86.866203,68.7116061 81.8577996,67.2896656 C81.8577996,67.2896656 74.79733,66.2094502 76.3595771,58.9239358 C77.8605802,51.9248421 80.2937047,47.9750076 76.5018635,44.5622449 L76.5018635,44.5622449 L78.7769946,40.9126901 C78.7769946,40.9126901 83.8098164,45.1311267 89.872433,39.9647298 Z M90.3170671,48.1419302 C90.067631,47.6365174 89.6734761,47.6444489 89.4279543,48.1419302 L89.4279543,48.1419302 L87.3858987,52.2795869 L82.8197234,52.943091 C82.2619673,53.0241377 82.14771,53.4014523 82.5449725,53.7886875 L82.5449725,53.7886875 L85.8490879,57.0094041 L85.0690921,61.5571289 C84.973816,62.1126313 85.297356,62.3378931 85.7883994,62.0797363 L85.7883994,62.0797363 L89.8725107,59.9325919 L93.956622,62.0797363 C94.4554943,62.3420089 94.7697104,62.1039138 94.6759294,61.5571289 L94.6759294,61.5571289 L93.8959336,57.0094041 L97.200049,53.7886875 C97.6036451,53.3952785 97.4743013,53.0228659 96.925298,52.943091 L96.925298,52.943091 L92.3591228,52.2795869 Z" id="Combined-Shape"></path>
        </g>
    </g>
</svg>